<svg width="16" height="16" viewBox="0 0 16 16" fill="none" xmlns="http://www.w3.org/2000/svg">
<path d="M10.6667 2.66665L12.0001 2.66665C12.3537 2.66665 12.6928 2.80712 12.9429 3.05717C13.1929 3.30722 13.3334 3.64636 13.3334 3.99998L13.3334 13.3333C13.3334 13.6869 13.1929 14.0261 12.9429 14.2761C12.6928 14.5262 12.3537 14.6666 12.0001 14.6666L4.00008 14.6666C3.64646 14.6666 3.30732 14.5262 3.05727 14.2761C2.80722 14.0261 2.66675 13.6869 2.66675 13.3333L2.66675 3.99998C2.66675 3.64636 2.80722 3.30722 3.05727 3.05717C3.30732 2.80712 3.64646 2.66665 4.00008 2.66665L5.33341 2.66665M6.00008 1.33331L10.0001 1.33331C10.3683 1.33331 10.6667 1.63179 10.6667 1.99998V3.33331C10.6667 3.7015 10.3683 3.99998 10.0001 3.99998L6.00008 3.99998C5.63189 3.99998 5.33341 3.7015 5.33341 3.33331V1.99998C5.33341 1.63179 5.63189 1.33331 6.00008 1.33331Z" stroke="#92A1B1" stroke-width="1.6" stroke-linecap="round" stroke-linejoin="round"/>
</svg>
