<svg width="20" height="20" viewBox="0 0 20 20" fill="none" xmlns="http://www.w3.org/2000/svg">
<path d="M3.75012 6.09363V7.65613H16.2501V6.09363C16.2501 5.67923 16.0855 5.2818 15.7925 4.98877C15.4995 4.69575 15.102 4.53113 14.6876 4.53113H5.31262C4.89822 4.53113 4.50079 4.69575 4.20777 4.98877C3.91474 5.2818 3.75012 5.67923 3.75012 6.09363Z" fill="#102938"/>
<path d="M13.1251 4.53113H14.6876C15.102 4.53113 15.4995 4.69575 15.7925 4.98877C16.0855 5.2818 16.2501 5.67923 16.2501 6.09363V7.65613H3.75012V6.09363C3.75012 5.67923 3.91474 5.2818 4.20777 4.98877C4.50079 4.69575 4.89822 4.53113 5.31262 4.53113H6.87512M13.1251 4.53113V2.96863M13.1251 4.53113H6.87512M6.87512 4.53113V2.96863M3.75012 8.04675V15.4686C3.75012 15.883 3.91474 16.2805 4.20777 16.5735C4.50079 16.8665 4.89822 17.0311 5.31262 17.0311H14.6876C15.102 17.0311 15.4995 16.8665 15.7925 16.5735C16.0855 16.2805 16.2501 15.883 16.2501 15.4686V8.04675" stroke="#102938" stroke-width="1.25" stroke-linecap="round" stroke-linejoin="round"/>
</svg>
