<svg width="16" height="16" viewBox="0 0 16 16" fill="none" xmlns="http://www.w3.org/2000/svg">
<path d="M3.33333 14L12.6667 14C13.403 14 14 13.403 14 12.6667L14 3.33333C14 2.59695 13.403 2 12.6667 2L3.33333 2C2.59695 2 2 2.59695 2 3.33333L2 12.6667C2 13.403 2.59695 14 3.33333 14ZM3.33333 14L10.6667 6.66667L14 10M6.66667 5.66667C6.66667 6.21895 6.21895 6.66667 5.66667 6.66667C5.11438 6.66667 4.66667 6.21895 4.66667 5.66667C4.66667 5.11438 5.11438 4.66667 5.66667 4.66667C6.21895 4.66667 6.66667 5.11438 6.66667 5.66667Z" stroke="#92A1B1" stroke-width="1.6" stroke-linecap="round" stroke-linejoin="round"/>
</svg>
