<svg width="16" height="16" viewBox="0 0 16 16" fill="none" xmlns="http://www.w3.org/2000/svg">
<path d="M7.99967 8.66663C8.36786 8.66663 8.66634 8.36815 8.66634 7.99996C8.66634 7.63177 8.36786 7.33329 7.99967 7.33329C7.63148 7.33329 7.33301 7.63177 7.33301 7.99996C7.33301 8.36815 7.63148 8.66663 7.99967 8.66663Z" stroke="#F5F5F5" stroke-width="1.6" stroke-linecap="round" stroke-linejoin="round"/>
<path d="M7.99967 3.99996C8.36786 3.99996 8.66634 3.70148 8.66634 3.33329C8.66634 2.9651 8.36786 2.66663 7.99967 2.66663C7.63148 2.66663 7.33301 2.9651 7.33301 3.33329C7.33301 3.70148 7.63148 3.99996 7.99967 3.99996Z" stroke="#F5F5F5" stroke-width="1.6" stroke-linecap="round" stroke-linejoin="round"/>
<path d="M7.99967 13.3333C8.36786 13.3333 8.66634 13.0348 8.66634 12.6666C8.66634 12.2984 8.36786 12 7.99967 12C7.63148 12 7.33301 12.2984 7.33301 12.6666C7.33301 13.0348 7.63148 13.3333 7.99967 13.3333Z" stroke="#F5F5F5" stroke-width="1.6" stroke-linecap="round" stroke-linejoin="round"/>
</svg>
