<!-- icon666.com - MILLIONS OF FREE VECTOR ICONS --><svg id="Layer" viewBox="0 0 24 24" xmlns="http://www.w3.org/2000/svg"><path id="pen-line" d="m21.75 7.231a2.728 2.728 0 0 0 -.806-1.947l-2.227-2.228a2.75 2.75 0 0 0 -3.894 0l-12.354 12.415a.745.745 0 0 0 -.219.529v5a.75.75 0 0 0 .75.75h5a.753.753 0 0 0 .529-.218l12.411-12.355a2.73 2.73 0 0 0 .81-1.946zm-14.06 13.019h-3.94v-3.94l8.993-9.035 3.982 3.982zm12.192-12.136-2.094 2.086-3.988-3.988 2.085-2.094a1.24 1.24 0 0 1 .885-.368 1.244 1.244 0 0 1 .885.366l2.228 2.228a1.251 1.251 0 0 1 0 1.77zm1.868 12.886a.75.75 0 0 1 -.75.75h-7a.75.75 0 0 1 0-1.5h7a.75.75 0 0 1 .75.75z" fill="rgb(0,0,0)" style="fill: rgb(16, 41, 56);"></path></svg>